<?xml version="1.0" encoding="UTF-8"?>
<svg version="1.1" xmlns="http://www.w3.org/2000/svg" width="512" height="512">
<path d="M0 0 C1.83265236 1.47531067 3.64633536 2.97458679 5.4375 4.5 C6.30632812 5.21929688 7.17515625 5.93859375 8.0703125 6.6796875 C21.39948535 18.13380851 31.05883252 32.4645425 37.3125 48.8125 C37.58658691 49.50923828 37.86067383 50.20597656 38.14306641 50.92382812 C43.69225542 66.36924312 43.84765728 82.43403483 43.625 98.625 C43.60990134 100.56639568 43.59622225 102.50780293 43.58398438 104.44921875 C43.55144568 109.13310688 43.49996056 113.81641929 43.4375 118.5 C44.38455811 118.63486816 45.33161621 118.76973633 46.30737305 118.90869141 C50.71362115 119.74107054 52.24730332 121.66027935 55.0234375 125.0234375 C57.4558199 129.28346635 57.49949984 133.68172705 57.4375 138.5 C59.08298828 138.41298828 59.08298828 138.41298828 60.76171875 138.32421875 C62.21610314 138.27730312 63.67053374 138.23180489 65.125 138.1875 C66.2068457 138.1246582 66.2068457 138.1246582 67.31054688 138.06054688 C68.36918945 138.03637695 68.36918945 138.03637695 69.44921875 138.01171875 C70.09334717 137.98553467 70.73747559 137.95935059 71.40112305 137.93237305 C74.7849533 138.87559392 76.24950022 140.81117467 78.4375 143.5 C78.92310839 146.36178441 79.10404373 148.62347943 79.05273438 151.47705078 C79.05828339 152.26656128 79.0638324 153.05607178 79.06954956 153.86950684 C79.08135084 156.47872826 79.05703716 159.08621228 79.03125 161.6953125 C79.02953657 163.52594931 79.02960694 165.35658858 79.03137207 167.18722534 C79.02971768 171.03244399 79.01102143 174.87708059 78.97949219 178.72216797 C78.94020649 183.59560943 78.93540068 188.4682752 78.94295502 193.34184456 C78.94606417 197.1308778 78.93376 200.91974433 78.91682434 204.70873642 C78.9098964 206.50164615 78.90665708 208.2945748 78.90751648 210.08749771 C78.89545321 226.67672426 77.32707381 242.87657015 71.8125 258.625 C71.46622559 259.63288574 71.11995117 260.64077148 70.76318359 261.67919922 C58.6432713 295.78305979 32.92707979 323.82906402 0.50708008 339.72729492 C-4.27306909 341.99065623 -9.12766561 344.03622781 -14.0625 345.9375 C-14.69663818 346.18467773 -15.33077637 346.43185547 -15.98413086 346.68652344 C-20.69535966 348.42083952 -24.35490359 348.84905045 -29.5625 349.5 C-29.5625 381.51 -29.5625 413.52 -29.5625 446.5 C-15.3725 446.5 -1.1825 446.5 13.4375 446.5 C24.58698309 452.97604706 24.58698309 452.97604706 29.44726562 458.44189453 C33.22055635 462.34386225 37.72975102 465.34172063 42.125 468.5 C57.94445332 480.15781737 57.94445332 480.15781737 59.5625 484.5625 C59.40090179 488.36005789 58.12585016 490.81164984 55.4375 493.5 C52.46082825 493.60466239 49.50714342 493.64331555 46.52981567 493.64044189 C45.11063286 493.64489858 45.11063286 493.64489858 43.66277969 493.6494453 C40.46674671 493.65817311 37.27075101 493.65964397 34.07470703 493.66113281 C31.79374104 493.66575808 29.51277582 493.67078234 27.23181152 493.67617798 C21.01699177 493.68933157 14.80218283 493.69575262 8.58735132 493.70018864 C4.70930363 493.70311444 0.83125893 493.70721828 -3.04678726 493.71169281 C-13.77663274 493.72380601 -24.50647432 493.73418674 -35.23632622 493.7375679 C-35.92352222 493.73778747 -36.61071822 493.73800703 -37.31873835 493.73823325 C-38.0076118 493.73845153 -38.69648526 493.73866981 -39.40623367 493.7388947 C-40.80223521 493.73933817 -42.19823674 493.73978474 -43.59423828 493.74023438 C-44.63294357 493.74056652 -44.63294357 493.74056652 -45.69263281 493.74090537 C-56.91646245 493.74485449 -68.14022721 493.76231082 -79.36403178 493.7855939 C-90.87777966 493.80928633 -102.39148572 493.82151061 -113.90525925 493.82293582 C-120.3736845 493.82398664 -126.8420183 493.82995299 -133.31042099 493.84775543 C-139.39244137 493.8641681 -145.47430089 493.86642486 -151.55633545 493.85761642 C-153.79331008 493.8568424 -156.03029312 493.86123644 -158.26724625 493.87107468 C-161.31197506 493.88368411 -164.35612461 493.87797759 -167.40084839 493.86749268 C-168.29412775 493.87554908 -169.18740711 493.88360548 -170.10775554 493.89190602 C-170.92125976 493.88531618 -171.73476398 493.87872633 -172.57291985 493.8719368 C-173.62753939 493.87283243 -173.62753939 493.87283243 -174.70346439 493.87374616 C-177.15801473 493.38027591 -178.02934329 492.44553662 -179.5625 490.5 C-180.55525248 487.23809898 -180.93857304 485.36718018 -179.56640625 482.203125 C-176.77367357 478.43593004 -173.3562995 475.92735684 -169.625 473.125 C-168.8410083 472.52574707 -168.0570166 471.92649414 -167.24926758 471.30908203 C-164.69492075 469.36202543 -162.13023607 467.42935913 -159.5625 465.5 C-158.6643457 464.82388672 -157.76619141 464.14777344 -156.84082031 463.45117188 C-151.79715255 459.65718293 -146.7451091 455.87477256 -141.68041992 452.10888672 C-139.27501202 450.28160855 -136.92130973 448.38704779 -134.5625 446.5 C-120.3725 446.5 -106.1825 446.5 -91.5625 446.5 C-91.5625 414.49 -91.5625 382.48 -91.5625 349.5 C-94.2025 349.17 -96.8425 348.84 -99.5625 348.5 C-102.62256042 347.71232997 -105.54352386 346.61256946 -108.5 345.5 C-109.32121338 345.19239746 -110.14242676 344.88479492 -110.98852539 344.56787109 C-128.90337335 337.6496264 -143.6226044 327.69817971 -157.5625 314.5 C-158.45839844 313.66855469 -159.35429687 312.83710938 -160.27734375 311.98046875 C-167.43818154 305.12092849 -173.13645929 297.76905494 -178.5625 289.5 C-179.18898437 288.55769531 -179.81546875 287.61539062 -180.4609375 286.64453125 C-192.72342021 266.9746212 -199.66051246 242.72018247 -199.73950195 219.57714844 C-199.74607315 218.72409119 -199.75264435 217.87103394 -199.75941467 216.99212646 C-199.77896588 214.19787487 -199.79076183 211.40367621 -199.80078125 208.609375 C-199.80485678 207.6508387 -199.8089323 206.6923024 -199.81313133 205.70471954 C-199.83390234 200.64266685 -199.84824931 195.58064063 -199.85766602 190.51855469 C-199.86878448 185.29063161 -199.90327185 180.06312782 -199.94283772 174.83535385 C-199.96893246 170.81023348 -199.97735088 166.78521492 -199.98094749 162.7600174 C-199.98582249 160.83186217 -199.99746237 158.90371176 -200.01598549 156.97563934 C-200.04025198 154.2851715 -200.03943646 151.59581647 -200.0324707 148.90527344 C-200.04528076 148.10935791 -200.05809082 147.31344238 -200.07128906 146.4934082 C-200.03732794 142.90165585 -199.86842524 140.90131152 -197.65904236 138.00305176 C-195.32229101 136.32778953 -194.28925189 136.02343176 -191.453125 136.109375 C-190.69902344 136.12226563 -189.94492188 136.13515625 -189.16796875 136.1484375 C-188.00201172 136.19871094 -188.00201172 136.19871094 -186.8125 136.25 C-186.01972656 136.26804688 -185.22695312 136.28609375 -184.41015625 136.3046875 C-182.46041652 136.35166918 -180.51130122 136.42340956 -178.5625 136.5 C-178.55774658 135.89091797 -178.55299316 135.28183594 -178.5480957 134.65429688 C-178.41367932 128.6335346 -176.51105005 125.45148059 -172.546875 121.03125 C-170.21542413 119.23217768 -168.42939618 118.9878319 -165.5625 118.5 C-165.57821045 117.38778076 -165.5939209 116.27556152 -165.61010742 115.12963867 C-165.66543203 110.90445538 -165.69921266 106.6793021 -165.72729492 102.45385742 C-165.7421529 100.64358088 -165.76244494 98.83333876 -165.78881836 97.02319336 C-166.24423743 64.902754 -158.58734738 35.83531982 -136.12890625 11.97705078 C-100.83611192 -24.09285454 -41.03686919 -29.94016477 0 0 Z M-79.4375 -1.5 C-80.60925781 -1.2215625 -80.60925781 -1.2215625 -81.8046875 -0.9375 C-82.38476562 -0.793125 -82.96484375 -0.64875 -83.5625 -0.5 C-83.56614563 0.10499329 -83.56979126 0.70998657 -83.57354736 1.33331299 C-83.61534362 7.62771072 -83.68466882 13.92137731 -83.77001953 20.21533203 C-83.79825288 22.56454152 -83.81945558 24.91384641 -83.83349609 27.26318359 C-83.85489224 30.63949518 -83.90152737 34.01465667 -83.953125 37.390625 C-83.95435364 38.44179504 -83.95558228 39.49296509 -83.95684814 40.57598877 C-84.10287246 47.83857293 -84.10287246 47.83857293 -86.41308594 51.16308594 C-89.3790085 53.00786012 -91.13327809 53.07153698 -94.5625 52.5 C-96.71191406 51.06738281 -96.71191406 51.06738281 -98.5625 48.5 C-99.17966477 45.31350249 -99.16744455 42.16024266 -99.171875 38.921875 C-99.18841125 37.9953009 -99.20494751 37.06872681 -99.22198486 36.11407471 C-99.27050726 33.159316 -99.29184524 30.20507211 -99.3125 27.25 C-99.34065613 25.24476571 -99.37058305 23.23955544 -99.40234375 21.234375 C-99.47626745 16.32295904 -99.52581624 11.41182959 -99.5625 6.5 C-121.16931352 16.85501293 -136.36986109 34.46854548 -144.8203125 56.828125 C-151.34990411 76.85220593 -149.5625 96.1253386 -149.5625 117.5 C-90.8225 117.5 -32.0825 117.5 28.4375 117.5 C28.65506759 64.9115795 28.65506759 64.9115795 2.4375 23.5 C1.81359375 22.80261719 1.1896875 22.10523437 0.546875 21.38671875 C-5.36449545 14.99101332 -13.24377919 9.27290694 -21.5625 6.5 C-21.57708252 7.75135742 -21.59166504 9.00271484 -21.60668945 10.29199219 C-21.66467927 14.93648803 -21.7419123 19.58049939 -21.82495117 24.22460938 C-21.85819726 26.23429499 -21.88623019 28.24407391 -21.90893555 30.25390625 C-21.94248722 33.14363347 -21.99480337 36.03250593 -22.05078125 38.921875 C-22.05717117 39.81992859 -22.0635611 40.71798218 -22.07014465 41.64324951 C-22.21637301 47.85291437 -22.21637301 47.85291437 -23.93945312 51.07421875 C-26.22776873 53.08441176 -27.75540575 52.90556334 -30.75 52.75 C-31.65105469 52.71390625 -32.55210937 52.6778125 -33.48046875 52.640625 C-34.16753906 52.59421875 -34.85460937 52.5478125 -35.5625 52.5 C-36.52630077 49.6085977 -36.71362024 47.67346077 -36.76782227 44.66137695 C-36.7977401 43.19019157 -36.7977401 43.19019157 -36.82826233 41.68928528 C-36.84497482 40.63295395 -36.86168732 39.57662262 -36.87890625 38.48828125 C-36.89968735 37.40491989 -36.92046844 36.32155853 -36.94187927 35.20536804 C-37.00731797 31.74114384 -37.06623353 28.2768432 -37.125 24.8125 C-37.16819061 22.46548685 -37.21180507 20.11848147 -37.25585938 17.77148438 C-37.36299357 12.01440396 -37.46477064 6.25724733 -37.5625 0.5 C-42.3668208 -1.9021604 -47.29353895 -2.11122229 -52.5625 -2.5 C-52.57058685 -1.66950134 -52.57867371 -0.83900269 -52.58700562 0.0166626 C-52.66495651 7.84453854 -52.75224872 15.67224262 -52.85002708 23.499897 C-52.89996627 27.52414759 -52.94629645 31.54837223 -52.984375 35.57275391 C-53.02125796 39.4567365 -53.06762595 43.34050077 -53.12056351 47.22429657 C-53.13909149 48.70580972 -53.15420537 50.18736965 -53.16584396 51.66895294 C-53.18273402 53.7446985 -53.2117747 55.8199458 -53.24365234 57.89550781 C-53.25697601 59.07687317 -53.27029968 60.25823853 -53.2840271 61.47540283 C-53.55410809 64.40885237 -53.83954064 66.1247557 -55.5625 68.5 C-59.05534152 69.40555151 -61.48677034 69.86801278 -64.9375 68.6875 C-66.5625 67.5 -66.5625 67.5 -67.5625 65.5 C-67.68327053 63.34588426 -67.73996022 61.18808039 -67.76782227 59.03076172 C-67.77772186 58.36722687 -67.78762146 57.70369202 -67.79782104 57.02005005 C-67.82944916 54.82329903 -67.85419854 52.62652637 -67.87890625 50.4296875 C-67.89947466 48.90796339 -67.9204711 47.386245 -67.94187927 45.86453247 C-67.99711171 41.8565535 -68.04651578 37.84852287 -68.09472656 33.8404541 C-68.14493305 29.75166213 -68.20062356 25.66294532 -68.25585938 21.57421875 C-68.36345528 13.54954268 -68.46489704 5.5248038 -68.5625 -2.5 C-72.36559208 -2.58818764 -75.74068815 -2.39619681 -79.4375 -1.5 Z M-162.5625 133.5 C-162.5625 144.39 -162.5625 155.28 -162.5625 166.5 C-95.2425 166.5 -27.9225 166.5 41.4375 166.5 C41.4375 155.61 41.4375 144.72 41.4375 133.5 C-25.8825 133.5 -93.2025 133.5 -162.5625 133.5 Z M-183.5625 152.5 C-183.63256498 161.9851459 -183.68559407 171.47020028 -183.71793652 180.95555019 C-183.73347328 185.3618184 -183.75448702 189.76790724 -183.78881836 194.17407227 C-183.8218464 198.44054442 -183.83944265 202.70684605 -183.84713173 206.97343636 C-183.8525985 208.58661642 -183.86326866 210.19978908 -183.87969017 211.81289482 C-184.01771052 225.95659976 -182.6656551 239.91670424 -178 253.375 C-177.62645386 254.46772217 -177.62645386 254.46772217 -177.24536133 255.58251953 C-172.29077802 269.37544489 -165.0257262 282.3147769 -155.5625 293.5 C-155.13807617 294.01191895 -154.71365234 294.52383789 -154.27636719 295.05126953 C-133.27982792 320.13596746 -103.30424537 335.08021743 -70.87890625 338.30957031 C-37.90594806 341.02024774 -5.97864748 330.34210439 19.23046875 309.15234375 C21.68697323 306.98571424 24.07027039 304.76340375 26.4375 302.5 C27.11039063 301.89027344 27.78328125 301.28054688 28.4765625 300.65234375 C50.90816608 279.60595872 62.39518564 247.85933429 63.5897522 217.6496582 C63.82151375 208.10159595 63.72821584 198.54882725 63.64349365 188.99938965 C63.6122742 185.09664909 63.59899192 181.19384622 63.58398438 177.29101562 C63.55223565 169.69384573 63.50134094 162.09697544 63.4375 154.5 C61.4575 154.5 59.4775 154.5 57.4375 154.5 C57.40011719 155.4178125 57.36273438 156.335625 57.32421875 157.28125 C56.61123461 170.59028728 56.61123461 170.59028728 53.4375 176.5 C50.44340266 178.93270409 48.08094978 180.28551674 44.4375 181.5 C44.42291748 182.61221924 44.40833496 183.72443848 44.39331055 184.87036133 C44.33424075 189.09590922 44.25704351 193.32098268 44.17504883 197.54614258 C44.14229982 199.35628416 44.11412231 201.16651567 44.09106445 202.97680664 C43.88325526 218.88084175 43.24997477 235.36736135 37.25 250.3125 C36.94956787 251.09036865 36.64913574 251.8682373 36.33959961 252.66967773 C25.70779077 279.30253666 5.34059784 299.73618123 -20.87890625 311.03515625 C-45.9800892 321.01706888 -74.34925649 321.33787773 -99.5625 311.5 C-110.15890464 306.82126028 -119.91068958 301.24738053 -128.5625 293.5 C-129.43455078 292.83871094 -129.43455078 292.83871094 -130.32421875 292.1640625 C-145.31485969 280.63280024 -156.0727223 260.55896898 -160.5625 242.5 C-160.82434082 241.51290039 -161.08618164 240.52580078 -161.35595703 239.50878906 C-163.19110695 231.72206367 -163.7825619 224.36745192 -163.7578125 216.3671875 C-163.75651337 215.39304398 -163.75521423 214.41890045 -163.75387573 213.41523743 C-163.73803513 209.36903803 -163.70787118 205.32465645 -163.62109375 201.27929688 C-163.56408875 198.28653412 -163.56296703 195.29788938 -163.5703125 192.3046875 C-163.53632355 191.39322968 -163.50233459 190.48177185 -163.46731567 189.54269409 C-163.49719367 186.90648282 -163.59978778 184.95851794 -164.5625 182.5 C-166.75352052 180.71499396 -168.84243148 179.61124197 -171.43331909 178.49319458 C-174.39076947 177.11363887 -175.36746105 175.48759737 -176.5625 172.5 C-177.59216259 168.26694268 -177.87195863 164.02238898 -178.125 159.6875 C-178.16818359 158.99462891 -178.21136719 158.30175781 -178.25585938 157.58789062 C-178.36111453 155.89211314 -178.46222863 154.19607948 -178.5625 152.5 C-180.2125 152.5 -181.8625 152.5 -183.5625 152.5 Z M-149.5625 182.5 C-149.5625 221.23930344 -149.20799331 251.57444426 -122.15625 278.93359375 C-104.42248877 295.57302478 -81.6362512 303.9691373 -57.46875 303.7109375 C-32.83489508 302.38070933 -10.86281644 291.69774442 6.125 273.75 C29.63880423 246.5411694 28.4375 217.57437362 28.4375 182.5 C-30.3025 182.5 -89.0425 182.5 -149.5625 182.5 Z M-75.5625 352.5 C-75.5625 383.52 -75.5625 414.54 -75.5625 446.5 C-65.6625 446.5 -55.7625 446.5 -45.5625 446.5 C-45.5625 415.48 -45.5625 384.46 -45.5625 352.5 C-55.4625 352.5 -65.3625 352.5 -75.5625 352.5 Z M-141.5625 472.5 C-142.825403 473.45792502 -144.10839891 474.38992065 -145.40983582 475.2947998 C-146.97040459 476.3863739 -146.97040459 476.3863739 -148.5625 477.5 C-148.5625 477.83 -148.5625 478.16 -148.5625 478.5 C-90.4825 478.5 -32.4025 478.5 27.4375 478.5 C25.4575 476.52 25.4575 476.52 23.4375 474.5 C22.93228663 473.96501137 22.42707327 473.43002274 21.90655041 472.87882233 C11.89130302 462.54372327 2.68429707 460.07228102 -11.49770069 459.76435089 C-14.96065548 459.73379866 -18.42103362 459.77043403 -21.8836534 459.81963158 C-25.54996288 459.86058234 -29.21597235 459.83523757 -32.88240051 459.82043457 C-39.03139971 459.80602201 -45.17833091 459.84443846 -51.3269043 459.91503906 C-58.39860401 459.99555861 -65.46632624 459.9900827 -72.53821105 459.93913031 C-79.39389149 459.89188138 -86.24812078 459.90737061 -93.10378456 459.95014954 C-95.99817737 459.96707327 -98.89129139 459.96251195 -101.78563499 459.93962097 C-118.36621328 459.83277404 -129.81053432 460.08284885 -141.5625 472.5 Z " fill="#A6649A" transform="translate(316.5625,18.5)"/>
</svg>
